<?xml version="1.0" encoding="utf-8"?>
<!DOCTYPE svg PUBLIC "-//W3C//DTD SVG 1.1//EN" "http://www.w3.org/Graphics/SVG/1.1/DTD/svg11.dtd">
<svg version="1.1" xmlns="http://www.w3.org/2000/svg" xmlns:xlink="http://www.w3.org/1999/xlink" x="0px" y="0px" viewBox="0 0 256 256" enable-background="new 0 0 256 256" xml:space="preserve">
<path fill="#FCF21A" d="M141.5,157.4c0.2-3.6,4.4-2.4,4.4-2.4l32.7,6.7l67.4,25.7c0-12.6-2-14-5-16.2l-96.2-69c0,0-2.6-31.6-2.6-59.5c0-12.9-6.2-41.2-14.3-41.2s-14.3,28.7-14.3,41.2c0,26.4-2.6,59.5-2.6,59.5l-96.2,69c-3.7,2.6-5,4.1-5,16.2l67.4-25.7l32.6-6.6c0,0,4.2-1.3,4.4,2.4c0.2,3.6-0.6,36.4,3.1,53.8c0.5,2.3-1.3,2.5-2.5,3.9l-27.4,17.3c-0.9,1-1.3,3.8-1.3,3.8l-0.5,9.8l35.8-8.4l6.3,16.8l6.3-16.8l35.8,8.4l-0.5-9.8c0.1,0-0.4-2.8-1.3-3.8l-27.4-17.3c-1.2-1.4-3-1.6-2.5-3.9C142.1,193.8,141.3,161.1,141.5,157.4z"/>
</svg>